<svg width="30" height="30" viewBox="0 0 30 30" fill="none" xmlns="http://www.w3.org/2000/svg">
<path d="M23.75 1.25L17.5 7.5V21.25L23.75 15.625V1.25ZM26.25 6.25V23.125C24.875 22.6875 23.375 22.5 21.875 22.5C19.75 22.5 16.6875 23.3125 15 24.375V7.5C13.1875 6.125 10.5625 5.625 8.125 5.625C5.6875 5.625 3.0625 6.125 1.25 7.5V25.8125C1.25 26.125 1.5625 26.4375 1.875 26.4375C2 26.4375 2.0625 26.375 2.1875 26.375C3.875 25.5625 6.3125 25 8.125 25C10.5625 25 13.1875 25.5 15 26.875C16.6875 25.8125 19.75 25 21.875 25C23.9375 25 26.0625 25.375 27.8125 26.3125C27.9375 26.375 28 26.375 28.125 26.375C28.4375 26.375 28.75 26.0625 28.75 25.75V7.5C28 6.9375 27.1875 6.5625 26.25 6.25ZM12.5 23.0125C10.9375 22.6125 9.375 22.5 8.125 22.5C6.8 22.5 5.225 22.7375 3.75 23.125V8.9125C4.8875 8.4125 6.425 8.125 8.125 8.125C9.825 8.125 11.3625 8.4125 12.5 8.9125V23.0125Z" fill="#120024"/>
</svg>
