<svg width="42" height="42" viewBox="0 0 42 42" fill="none" xmlns="http://www.w3.org/2000/svg">
<path d="M6.0761 31.9509C6.92018 32.4397 7.92366 32.5114 8.91056 32.1161C12.0486 30.8615 15.502 30.8699 18.6351 32.1344L20.3593 32.8318C20.3789 32.8396 20.4003 32.8364 20.4201 32.8437C20.6075 32.9119 20.8014 32.957 20.9998 32.957C21.1955 32.957 21.3874 32.9132 21.5727 32.8468C21.5925 32.8396 21.6141 32.8429 21.6335 32.8352L23.4379 32.1144C24.3132 31.764 25.214 31.5227 26.1248 31.3691V32.957C26.1248 33.9012 26.8897 34.6653 27.8331 34.6653C28.7764 34.6653 29.5414 33.9012 29.5414 32.957V31.2416C30.7711 31.3633 31.9893 31.6614 33.1624 32.1361C34.0666 32.5015 35.0718 32.4315 35.9185 31.946C36.7685 31.4572 37.3357 30.6181 37.4741 29.6454C38.2865 23.9298 38.2865 18.1324 37.4741 12.4168L37.45 12.2434C37.2173 10.6086 36.1245 9.21388 34.603 8.60315L34.397 8.51978C30.439 6.9283 26.0805 6.9283 22.1225 8.51978L20.9989 8.97215L19.8695 8.51808C15.9115 6.92813 11.553 6.92984 7.59344 8.52303L7.40074 8.60161C5.87417 9.21388 4.78135 10.6101 4.54953 12.2451L4.52527 12.4153C3.71279 18.1326 3.71279 23.9298 4.52613 29.6537C4.66382 30.6248 5.22859 31.4622 6.0761 31.9509ZM33.1183 11.6879L33.3261 11.7713C33.7222 11.9315 34.0058 12.295 34.0668 12.7221L34.0911 12.8957C34.8443 18.1891 34.8584 23.5545 34.1353 28.8479C32.2401 28.1239 30.2574 27.7619 28.2737 27.7619C26.3943 27.7619 24.5141 28.0872 22.7083 28.7379V11.9682L23.3981 11.6896C26.5318 10.4283 29.9861 10.4283 33.1183 11.6879ZM7.90863 12.8941L7.93288 12.724C7.9937 12.2952 8.27745 11.9315 8.67857 11.7697L8.87213 11.6913C10.4411 11.0606 12.0894 10.7452 13.7385 10.7452C15.3843 10.7452 17.0301 11.0589 18.5958 11.6879L19.2914 11.9682V28.7295C15.6071 27.4099 11.6114 27.4433 7.86523 28.858C7.14124 23.5594 7.15542 18.1925 7.90863 12.8941Z" fill="#88267C"/>
</svg>
