<svg width="52" height="52" viewBox="0 0 52 52" fill="none" xmlns="http://www.w3.org/2000/svg">
<path d="M17.4222 29.0508H6.61816V38.9004C6.61816 40.0166 7.52623 40.9247 8.64241 40.9247H17.4222V29.0508Z" fill="#9255DD"/>
<path d="M20.9558 3.20703H15.8115V16.0932H20.9558V3.20703Z" fill="#ED2CD9"/>
<path d="M13.787 3.20703H8.64271C7.52573 3.20703 6.61816 4.11561 6.61816 5.23158V15.1062C6.61816 15.5888 6.95616 15.9918 7.40822 16.0932H13.787V3.20703ZM31.2359 16.0932C31.3134 16.0932 31.3885 16.1023 31.4612 16.1185H35.2931C36.4091 16.1185 37.3177 15.211 37.3177 14.0939V5.23158C37.3177 4.11561 36.4091 3.20703 35.2931 3.20703H30.1489V16.0932H31.2359Z" fill="#ED2CD9"/>
<path d="M28.1237 3.20703H22.9795V16.0932H28.1237V3.20703Z" fill="#ED2CD9"/>
<path d="M15.8117 3.20703H13.7871V16.0932H15.8117V3.20703Z" fill="#F5F5FC"/>
<path d="M22.9796 3.20703H20.9551V16.0932H22.9796V3.20703Z" fill="#F5F5FC"/>
<path d="M30.1486 3.20703H28.124V16.0932H30.1486V3.20703Z" fill="#F5F5FC"/>
<path d="M22.6318 19.6749C25.1539 19.8167 27.676 20.4339 30.1981 21.5251V18.166H5.95312V26.9784H17.4216V22.738C17.4216 22.0273 18.0971 21.5111 18.7828 21.6976L21.5016 22.4376V20.752C21.5016 20.1362 22.017 19.6404 22.6318 19.6749Z" fill="#F5F5FC"/>
<path d="M17.4218 29.0508V26.9765H5.95339V18.1642H30.1984V21.5232C30.8898 21.8223 31.5813 22.1571 32.2727 22.5275V17.127C32.2727 16.6317 31.9252 16.2181 31.4608 16.1151C31.3882 16.0991 31.313 16.0898 31.2355 16.0898H30.1485H28.124H22.9797H20.9552H15.8109H13.7864H7.40797H2.56059C1.98778 16.0898 1.52344 16.5542 1.52344 17.127C1.52344 17.6998 1.98778 18.1642 2.56059 18.1642H3.87908V26.9765H2.56059C1.98778 26.9765 1.52344 27.4409 1.52344 28.0137C1.52344 28.5865 1.98778 29.0508 2.56059 29.0508H6.61781H17.4218Z" fill="#2B1744"/>
<path d="M49.1163 21.6967L46.3975 22.4366V39.8028C46.3975 40.3768 45.9477 40.8477 45.3745 40.8787C41.7815 41.0733 38.155 42.2303 34.4941 44.377C34.3262 44.4754 34.1382 44.5247 33.9502 44.5247C33.7622 44.5247 33.5741 44.4755 33.4064 44.377C29.7454 42.2302 26.1189 41.0732 22.526 40.8787C21.9527 40.8476 21.5029 40.3768 21.5029 39.8028V22.4366L18.7841 21.6967C18.0983 21.51 17.4229 22.0263 17.4229 22.737V26.9774V29.0517V40.9256V43.512C17.4229 43.9984 17.7486 44.4245 18.2179 44.5523L33.6672 48.757C33.8525 48.8074 34.048 48.8074 34.2334 48.757L49.6827 44.5523C50.152 44.4245 50.4777 43.9984 50.4777 43.512V22.737C50.4776 22.0263 49.8021 21.5101 49.1163 21.6967Z" fill="#2B1744"/>
<path d="M30.1975 21.5237C27.6754 20.4326 25.1533 19.8154 22.6312 19.6736C22.0162 19.639 21.501 20.1349 21.501 20.7507V22.4364V39.8025C21.501 40.3766 21.9508 40.8474 22.524 40.8784C26.117 41.073 29.7435 42.23 33.4044 44.3767C33.5723 44.4751 33.7603 44.5244 33.9483 44.5244V23.4957C33.3895 23.1497 32.8306 22.8275 32.2718 22.5281C31.5803 22.1576 30.8889 21.8228 30.1975 21.5237ZM24.6129 25.4783C24.04 25.4783 23.5757 25.0139 23.5757 24.4411C23.5757 23.8683 24.04 23.404 24.6129 23.404C26.8735 23.404 29.1512 24.1045 31.3825 25.4863C31.8695 25.7878 32.0198 26.4271 31.7183 26.9141C31.522 27.2309 31.1828 27.4053 30.8355 27.4053C30.6491 27.4053 30.4605 27.3552 30.2905 27.2498C28.3921 26.0742 26.4818 25.4783 24.6129 25.4783ZM24.6129 29.3438C24.04 29.3438 23.5757 28.8795 23.5757 28.3067C23.5757 27.7339 24.04 27.2695 24.6129 27.2695C26.8734 27.2695 29.1511 27.9701 31.3825 29.3519C31.8695 29.6534 32.0198 30.2926 31.7183 30.7796C31.522 31.0965 31.1828 31.2709 30.8355 31.2709C30.6491 31.2709 30.4605 31.2207 30.2905 31.1154C28.392 29.9399 26.4818 29.3438 24.6129 29.3438ZM31.7183 34.6453C31.522 34.9622 31.1828 35.1366 30.8355 35.1366C30.6491 35.1366 30.4605 35.0864 30.2905 34.9811C28.3921 33.8056 26.4818 33.2095 24.6129 33.2095C24.04 33.2095 23.5757 32.7452 23.5757 32.1724C23.5757 31.5996 24.04 31.1352 24.6129 31.1352C26.8734 31.1352 29.1511 31.8358 31.3825 33.2175C31.8695 33.519 32.0198 34.1583 31.7183 34.6453ZM30.2905 38.8467C28.3921 37.6712 26.4818 37.0751 24.6129 37.0751C24.04 37.0751 23.5757 36.6107 23.5757 36.0379C23.5757 35.4651 24.04 35.0008 24.6129 35.0008C26.8735 35.0008 29.1512 35.7014 31.3825 37.0832C31.8695 37.3848 32.0198 38.024 31.7183 38.511C31.5219 38.8279 31.1828 39.0022 30.8355 39.0022C30.6491 39.0022 30.4605 38.9521 30.2905 38.8467Z" fill="#ECECED"/>
<path d="M33.9492 44.5244C34.1372 44.5244 34.3253 44.4752 34.4931 44.3767C38.154 42.2299 41.7805 41.0729 45.3735 40.8784C45.9467 40.8473 46.3965 40.3766 46.3965 39.8026V22.4364V20.7508C46.3965 20.1349 45.8812 19.639 45.2663 19.6736C41.494 19.8856 37.7217 21.1597 33.9493 23.4957L33.9492 44.5244ZM43.2846 37.075C41.4157 37.075 39.5055 37.6711 37.607 38.8467C37.437 38.952 37.2483 39.0021 37.062 39.0021C36.7147 39.0021 36.3755 38.8279 36.1792 38.5109C35.8777 38.0239 36.028 37.3847 36.515 37.0831C38.7463 35.7013 41.0241 35.0007 43.2846 35.0007C43.8574 35.0007 44.3218 35.465 44.3218 36.0378C44.3218 36.6107 43.8575 37.075 43.2846 37.075ZM43.2846 33.2094C41.4157 33.2094 39.5055 33.8055 37.607 34.981C37.437 35.0863 37.2483 35.1365 37.062 35.1365C36.7147 35.1365 36.3755 34.9622 36.1792 34.6452C35.8777 34.1582 36.028 33.519 36.515 33.2175C38.7464 31.8357 41.0242 31.1351 43.2846 31.1351C43.8574 31.1351 44.3218 31.5995 44.3218 32.1723C44.3218 32.7451 43.8575 33.2094 43.2846 33.2094ZM43.2846 29.3438C41.4157 29.3438 39.5055 29.9398 37.607 31.1153C37.437 31.2206 37.2483 31.2708 37.062 31.2708C36.7147 31.2708 36.3755 31.0965 36.1792 30.7795C35.8777 30.2926 36.028 29.6533 36.515 29.3518C38.7464 27.97 41.0242 27.2694 43.2846 27.2694C43.8574 27.2694 44.3218 27.7338 44.3218 28.3066C44.3218 28.8794 43.8575 29.3438 43.2846 29.3438ZM43.2846 23.4039C43.8574 23.4039 44.3218 23.8682 44.3218 24.441C44.3218 25.0138 43.8575 25.4782 43.2846 25.4782C41.4157 25.4782 39.5054 26.0743 37.607 27.2497C37.437 27.3551 37.2483 27.4052 37.062 27.4052C36.7147 27.4052 36.3755 27.231 36.1792 26.914C35.8777 26.427 36.028 25.7877 36.515 25.4862C38.7463 24.1045 41.024 23.4039 43.2846 23.4039Z" fill="#F5F5FC"/>
<path d="M31.384 33.216C29.1525 31.8343 26.8748 31.1337 24.6143 31.1337C24.0415 31.1337 23.5771 31.598 23.5771 32.1708C23.5771 32.7437 24.0415 33.208 24.6143 33.208C26.4833 33.208 28.3934 33.8041 30.292 34.9796C30.462 35.0849 30.6506 35.135 30.8369 35.135C31.1843 35.135 31.5235 34.9608 31.7197 34.6438C32.0213 34.1568 31.8709 33.5175 31.384 33.216ZM31.7197 38.5095C32.0213 38.0225 31.8709 37.3832 31.384 37.0817C29.1526 35.6998 26.8749 34.9993 24.6143 34.9993C24.0415 34.9993 23.5771 35.4636 23.5771 36.0364C23.5771 36.6092 24.0415 37.0736 24.6143 37.0736C26.4833 37.0736 28.3934 37.6696 30.292 38.8452C30.462 38.9505 30.6506 39.0007 30.8369 39.0007C31.1842 39.0007 31.5234 38.8263 31.7197 38.5095ZM30.8369 31.2694C31.1843 31.2694 31.5235 31.0951 31.7197 30.7781C32.0213 30.2911 31.8709 29.6519 31.384 29.3504C29.1525 27.9686 26.8748 27.268 24.6143 27.268C24.0415 27.268 23.5771 27.7324 23.5771 28.3052C23.5771 28.878 24.0415 29.3423 24.6143 29.3423C26.4833 29.3423 28.3934 29.9384 30.292 31.1139C30.462 31.2192 30.6506 31.2694 30.8369 31.2694ZM30.8369 27.4037C31.1843 27.4037 31.5235 27.2294 31.7197 26.9124C32.0213 26.4255 31.8709 25.7862 31.384 25.4847C29.1526 24.1029 26.8749 23.4023 24.6143 23.4023C24.0415 23.4023 23.5771 23.8667 23.5771 24.4395C23.5771 25.0123 24.0415 25.4767 24.6143 25.4767C26.4834 25.4767 28.3935 26.0727 30.292 27.2482C30.462 27.3536 30.6506 27.4037 30.8369 27.4037ZM43.2852 31.1337C41.0246 31.1337 38.7469 31.8343 36.5155 33.216C36.0285 33.5176 35.8782 34.1568 36.1797 34.6438C36.3761 34.9607 36.7152 35.135 37.0625 35.135C37.2488 35.135 37.4375 35.0849 37.6075 34.9796C39.506 33.8041 41.4162 33.208 43.2852 33.208C43.8579 33.208 44.3223 32.7437 44.3223 32.1708C44.3223 31.598 43.858 31.1337 43.2852 31.1337ZM43.2852 34.9993C41.0245 34.9993 38.7468 35.6998 36.5155 37.0817C36.0285 37.3832 35.8782 38.0225 36.1797 38.5095C36.3761 38.8263 36.7152 39.0007 37.0625 39.0007C37.2488 39.0007 37.4375 38.9505 37.6075 38.8452C39.506 37.6696 41.4162 37.0736 43.2852 37.0736C43.8579 37.0736 44.3223 36.6092 44.3223 36.0364C44.3223 35.4636 43.858 34.9993 43.2852 34.9993ZM43.2852 27.268C41.0246 27.268 38.7469 27.9686 36.5155 29.3504C36.0285 29.6519 35.8782 30.2911 36.1797 30.7781C36.3761 31.095 36.7152 31.2694 37.0625 31.2694C37.2488 31.2694 37.4375 31.2192 37.6075 31.1139C39.506 29.9384 41.4162 29.3423 43.2852 29.3423C43.8579 29.3423 44.3223 28.878 44.3223 28.3052C44.3223 27.7324 43.858 27.268 43.2852 27.268ZM36.1797 26.9125C36.3761 27.2294 36.7152 27.4038 37.0625 27.4038C37.2488 27.4038 37.4375 27.3536 37.6075 27.2483C39.5058 26.0728 41.4162 25.4768 43.2852 25.4768C43.8579 25.4768 44.3223 25.0124 44.3223 24.4396C44.3223 23.8668 43.858 23.4024 43.2852 23.4024C41.0245 23.4024 38.7468 24.103 36.5155 25.4848C36.0285 25.7863 35.8782 26.4256 36.1797 26.9125Z" fill="#3E1E65"/>
</svg>
