<svg width="20" height="20" viewBox="0 0 20 20" fill="none" xmlns="http://www.w3.org/2000/svg">
<path d="M17.0409 16.9272H14.0776V12.362C14.0776 11.2734 14.0578 9.87206 12.5363 9.87206C10.9929 9.87206 10.7567 11.0581 10.7567 12.2828V16.9269H7.79336V7.53908H10.6382V8.82202H10.678C10.9627 8.34317 11.3741 7.94924 11.8684 7.6822C12.3627 7.41515 12.9214 7.28499 13.4849 7.30557C16.4884 7.30557 17.0422 9.24896 17.0422 11.7772L17.0409 16.9272ZM4.44969 6.25583C4.10957 6.25589 3.77706 6.15673 3.49422 5.9709C3.21139 5.78507 2.99094 5.5209 2.86073 5.21181C2.73051 4.90272 2.69638 4.56259 2.76268 4.23443C2.82897 3.90627 2.99271 3.60481 3.23317 3.36819C3.47363 3.13156 3.78002 2.97039 4.11359 2.90506C4.44716 2.83973 4.79293 2.87317 5.10719 3.00115C5.42144 3.12913 5.69006 3.34591 5.87907 3.62407C6.06808 3.90223 6.16901 4.22928 6.16907 4.56386C6.16911 4.78601 6.12466 5.00599 6.03827 5.21125C5.95189 5.41651 5.82527 5.60302 5.66561 5.76013C5.50595 5.91725 5.31638 6.04189 5.10775 6.12694C4.89913 6.21199 4.67552 6.25579 4.44969 6.25583ZM5.93137 16.9272H2.96491V7.53908H5.93137V16.9272ZM18.5183 0.165403H1.47583C1.08901 0.161109 0.716265 0.308059 0.439533 0.573962C0.162802 0.839864 0.00472088 1.20296 0 1.58347V18.4179C0.00455931 18.7985 0.162547 19.1619 0.43927 19.4281C0.715992 19.6943 1.08882 19.8415 1.47583 19.8374H18.5183C18.9061 19.8422 19.28 19.6954 19.5578 19.4292C19.8356 19.1631 19.9946 18.7993 20 18.4179V1.58226C19.9945 1.201 19.8353 0.837482 19.5575 0.571586C19.2797 0.30569 18.9059 0.159159 18.5183 0.164188" fill="#0A66C2"/>
</svg>
