<svg width="30" height="30" viewBox="0 0 30 30" fill="none" xmlns="http://www.w3.org/2000/svg">
<path d="M5.11387 20.8496L10.5285 26.3521L9.07422 27.8299L3.66016 22.3273L5.11387 20.8496Z" fill="#2B1744"/>
<path d="M17.6059 4.82227H14.0527V8.17559H17.6059V4.82227Z" fill="#2B1744"/>
<path d="M20.2176 2.05664V10.9406H11.4414V2.05664H20.2176ZM18.7779 8.76152V4.23633C18.7779 3.9123 18.5154 3.65039 18.192 3.65039H13.467C13.143 3.65039 12.8811 3.9123 12.8811 4.23633V8.76152C12.8811 9.08496 13.143 9.34746 13.467 9.34746H18.192C18.5154 9.34746 18.7779 9.08496 18.7779 8.76152Z" fill="#EEEEEE"/>
<path d="M27.0857 14.9471C27.7889 15.6614 27.7889 16.8233 27.0857 17.5376L21.0488 23.6717C20.6381 24.0889 20.0686 24.328 19.4867 24.328H13.4047C13.1234 24.328 12.851 24.4475 12.657 24.6567L11.607 25.7864C11.8865 26.1432 11.8643 26.6659 11.5391 26.9958L9.7209 28.8438C9.31719 29.254 8.73301 29.1538 8.42773 28.8438L2.64863 22.971C2.29941 22.6165 2.29941 22.0387 2.64863 21.6842L4.46738 19.8362C4.79023 19.5081 5.33398 19.4694 5.69961 19.7799L9.5252 16.2942C9.93066 15.9245 10.4545 15.7212 11 15.7212H17.617C18.6189 15.7212 19.434 16.545 19.434 17.5575C19.434 18.5706 18.6189 19.3944 17.617 19.3944H13.6508C13.4533 19.3944 13.2928 19.562 13.2928 19.7676C13.2928 19.9733 13.4533 20.1409 13.6508 20.1409H18.974C19.2482 20.1409 19.5061 20.0319 19.7012 19.8344L24.51 14.9471C25.0461 14.4022 26.2127 14.06 27.0857 14.9471ZM26.2508 16.7155C26.5074 16.4547 26.5074 16.0299 26.2502 15.7692C26.0498 15.5647 25.642 15.4674 25.3455 15.7692L20.5361 20.6559C20.1254 21.0737 19.5559 21.3128 18.974 21.3128H13.6508C12.8076 21.3128 12.1209 20.6196 12.1209 19.7676C12.1209 18.9157 12.807 18.2225 13.6508 18.2225H17.617C17.9727 18.2225 18.2621 17.9243 18.2621 17.5575C18.2621 17.1913 17.9727 16.893 17.617 16.893H11C10.7469 16.893 10.5037 16.9879 10.3145 17.1602L6.5252 20.6131L10.7885 24.9456L11.7986 23.8581C12.2141 23.4122 12.7988 23.1561 13.4047 23.1561H19.4867C19.7604 23.1561 20.0187 23.0471 20.2133 22.8497L26.2508 16.7155ZM10.5283 26.3524L5.11367 20.8499L3.65996 22.3276L9.07402 27.8301L10.5283 26.3524ZM25.8055 6.79381C26.1289 6.79381 26.3914 7.05631 26.3914 7.37974C26.3914 7.70318 26.1289 7.96568 25.8055 7.96568H22.9062C22.5828 7.96568 22.3203 7.70318 22.3203 7.37974C22.3203 7.05631 22.5828 6.79381 22.9062 6.79381H25.8055ZM25.3684 2.72447C25.5986 2.9524 25.6004 3.3233 25.3725 3.55357L23.3223 5.62135C23.0932 5.8522 22.7223 5.85103 22.4938 5.62486C22.2641 5.39693 22.2623 5.02603 22.4902 4.79634L24.5398 2.72857C24.7678 2.4983 25.1387 2.49654 25.3684 2.72447ZM25.3725 11.2059C25.6004 11.4356 25.5986 11.8071 25.3689 12.0344C25.1357 12.2653 24.7684 12.2612 24.5398 12.0309L22.4902 9.96314C22.2623 9.73345 22.2641 9.36256 22.4938 9.13463C22.7234 8.9067 23.0949 8.90845 23.3223 9.13814L25.3725 11.2059Z" fill="#2B1744"/>
<path d="M9.79297 12.1133C9.86094 12.4062 10.2781 12.7016 10.8553 12.7016H20.2174V12.1133H9.79297Z" fill="#2B1744"/>
<path d="M9.79316 12.1125H20.2176H20.8035C21.127 12.1125 21.3895 11.8506 21.3895 11.5266V1.4707C21.3895 1.14727 21.127 0.884766 20.8035 0.884766H10.641C9.52188 0.884766 8.61133 1.79531 8.61133 2.91445V12.0293C8.61133 13.0459 9.61855 13.8727 10.8555 13.8727H20.8035C21.127 13.8727 21.3895 13.6102 21.3895 13.2867C21.3895 12.9627 21.127 12.7008 20.8035 12.7008H20.2176H10.8555C10.2783 12.7008 9.86113 12.4055 9.79316 12.1125ZM11.4414 2.05664H20.2176V10.9406H11.4414V2.05664ZM9.7832 2.91445C9.7832 2.57461 9.98242 2.28164 10.2695 2.14277V10.9406H9.7832V2.91445Z" fill="black"/>
<path d="M18.7771 4.23736V8.76256C18.7771 9.08599 18.5146 9.34849 18.1912 9.34849H13.4662C13.1422 9.34849 12.8803 9.08599 12.8803 8.76256V4.23736C12.8803 3.91334 13.1422 3.65142 13.4662 3.65142H18.1912C18.5146 3.65142 18.7771 3.91334 18.7771 4.23736ZM17.6053 8.17662V4.8233H14.0521V8.17662H17.6053ZM7.50957 4.79634C7.7375 5.02603 7.73574 5.39693 7.50605 5.62486C7.27344 5.85572 6.90547 5.85103 6.67754 5.62134L4.62734 3.55357C4.4 3.3233 4.40117 2.9524 4.63145 2.72447C4.86113 2.49654 5.23203 2.4983 5.45996 2.72857L7.50957 4.79634ZM7.50605 9.13463C7.73574 9.36256 7.7375 9.73345 7.50957 9.96314L5.45996 12.0309C5.23086 12.2624 4.85938 12.2612 4.63086 12.035C4.40117 11.8071 4.4 11.4362 4.62734 11.2059L6.67754 9.13814C6.90547 8.90845 7.27637 8.9067 7.50605 9.13463ZM7.09355 6.79381C7.41699 6.79381 7.67949 7.05631 7.67949 7.37974C7.67949 7.70318 7.41699 7.96568 7.09355 7.96568H4.19434C3.8709 7.96568 3.6084 7.70318 3.6084 7.37974C3.6084 7.05631 3.8709 6.79381 4.19434 6.79381H7.09355Z" fill="black"/>
</svg>
