<svg width="24" height="24" viewBox="0 0 24 24" fill="none" xmlns="http://www.w3.org/2000/svg">
<path d="M19.35 3.75C16.95 1.95 17.25 0 17.25 0H3V18.75C3 21.6 6.15 24 9 24H21V4.5C21 4.5 19.8 4.2 19.35 3.75ZM10.5 9.45C9.15 9 7.05 8.25 7.05 6.6C7.2 5.4 9 4.5 9 4.2V3H10.5V4.05C12 4.2 13.2 4.65 13.35 4.65L12.9 6C12.9 6 11.85 5.55 10.65 5.55C9.6 5.55 9 6 8.85 6.75C8.85 7.2 9.6 7.65 10.8 8.1C13.05 8.85 13.65 9.75 13.65 10.95C13.65 12 13.5 13.35 10.5 13.65V15H9V13.8C9 13.65 6.9 13.05 6.75 13.05L7.5 11.7C7.5 11.7 9.15 12.45 10.5 12.3C11.85 12.15 12.45 11.4 12.45 10.8C12.6 10.35 11.85 9.9 10.5 9.45ZM19.5 22.5H9C7.5 22.5 6.3 21.6 6 20.55C5.85 20.1 6 19.5 6.6 19.5H16.5V4.05C18 4.95 19.5 5.7 19.5 6V22.5Z" fill="#2B1744"/>
</svg>
