<svg width="28" height="28" viewBox="0 0 28 28" fill="none" xmlns="http://www.w3.org/2000/svg">
<path d="M5.59961 5.60078C5.59961 4.85817 5.89461 4.14598 6.41971 3.62088C6.94481 3.09578 7.657 2.80078 8.39961 2.80078H19.5996C20.3422 2.80078 21.0544 3.09578 21.5795 3.62088C22.1046 4.14598 22.3996 4.85817 22.3996 5.60078V21.0008C22.3996 21.3721 22.2521 21.7282 21.9896 21.9907C21.727 22.2533 21.3709 22.4008 20.9996 22.4008H6.99961C6.99961 22.7721 7.14711 23.1282 7.40966 23.3907C7.67221 23.6533 8.02831 23.8008 8.39961 23.8008H21.6996C21.8853 23.8008 22.0633 23.8745 22.1946 24.0058C22.3259 24.1371 22.3996 24.3151 22.3996 24.5008C22.3996 24.6864 22.3259 24.8645 22.1946 24.9958C22.0633 25.127 21.8853 25.2008 21.6996 25.2008H8.39961C7.657 25.2008 6.94481 24.9058 6.41971 24.3807C5.89461 23.8556 5.59961 23.1434 5.59961 22.4008V5.60078ZM14.6352 7.40678C14.579 7.28575 14.4894 7.1833 14.3769 7.11151C14.2644 7.03972 14.1338 7.00157 14.0003 7.00157C13.8669 7.00157 13.7362 7.03972 13.6237 7.11151C13.5112 7.1833 13.4216 7.28575 13.3654 7.40678L12.2146 9.88478L9.50141 10.2124C9.36885 10.2284 9.24364 10.282 9.14054 10.3669C9.03745 10.4517 8.96078 10.5643 8.91957 10.6913C8.87836 10.8183 8.87434 10.9544 8.90798 11.0837C8.94161 11.2129 9.01151 11.3298 9.10941 11.4206L11.1114 13.2798L10.5836 15.9608C10.5579 16.0918 10.5702 16.2274 10.6191 16.3516C10.6679 16.4758 10.7512 16.5835 10.8592 16.6619C10.9672 16.7403 11.0954 16.7862 11.2286 16.7942C11.3619 16.8022 11.4946 16.7719 11.6112 16.707L13.9996 15.3798L16.3866 16.707C16.5032 16.7719 16.636 16.8022 16.7692 16.7942C16.9024 16.7862 17.0306 16.7403 17.1386 16.6619C17.2466 16.5835 17.3299 16.4758 17.3788 16.3516C17.4276 16.2274 17.4399 16.0918 17.4142 15.9608L16.8892 13.2798L18.8912 11.4206C18.9892 11.3297 19.059 11.2127 19.0926 11.0834C19.1262 10.954 19.122 10.8178 19.0807 10.6907C19.0393 10.5637 18.9624 10.4511 18.8592 10.3664C18.7559 10.2816 18.6305 10.2282 18.4978 10.2124L15.786 9.88338L14.6352 7.40678ZM13.3192 10.827L13.9996 9.36258L14.68 10.827C14.7301 10.935 14.8069 11.0285 14.9032 11.0985C14.9995 11.1686 15.112 11.2129 15.2302 11.2274L16.8332 11.4206L15.6502 12.5196C15.5629 12.6008 15.4978 12.703 15.461 12.8164C15.4243 12.9298 15.4171 13.0508 15.4402 13.1678L15.751 14.7512L14.3398 13.9672C14.2358 13.9093 14.1187 13.879 13.9996 13.879C13.8806 13.879 13.7635 13.9093 13.6594 13.9672L12.2482 14.7512L12.559 13.1678C12.5821 13.0508 12.575 12.9298 12.5382 12.8164C12.5014 12.703 12.4363 12.6008 12.349 12.5196L11.1674 11.4206L12.7676 11.2288C12.8858 11.2143 12.9984 11.17 13.0946 11.0999C13.1909 11.0299 13.2677 10.9364 13.3178 10.8284" fill="#2B1744"/>
</svg>
