<svg width="36" height="36" viewBox="0 0 36 36" fill="none" xmlns="http://www.w3.org/2000/svg">
<path d="M21.8597 1.85382C21.5693 1.68789 21.225 1.64398 20.9023 1.73172C20.5795 1.81947 20.3048 2.0317 20.1385 2.32182L20.1373 2.32407L15.6688 10.0641L15.1288 9.82895C13.796 9.24267 12.2972 9.15293 10.9039 9.57595C9.51061 9.99898 8.31477 10.9068 7.53284 12.1352L7.52497 12.1476L7.51709 12.1611L7.51484 12.1599L1.66484 21.9249L1.65922 21.9328V21.9418H1.65697C1.13683 22.8462 0.996211 23.9199 1.26588 24.9277C1.53556 25.9356 2.19356 26.7955 3.09584 27.3193C3.79136 27.7295 4.59772 27.912 5.40209 27.8413L5.33684 27.9561L5.33572 27.9572C5.10405 28.3574 4.96346 28.8037 4.92397 29.2645L4.49647 33.1378V33.1468C4.42559 34.0615 5.45047 34.6386 6.19634 34.1256L6.20759 34.1188L9.30359 31.7766C9.62534 31.5493 9.90547 31.2591 10.1192 30.9283V30.9396C10.1193 31.7695 10.3816 32.5782 10.8687 33.2501C11.3558 33.9221 12.0428 34.423 12.8315 34.6812C13.6202 34.9395 14.4704 34.9419 15.2605 34.6881C16.0507 34.4344 16.7405 33.9375 17.2315 33.2683C17.3743 33.4033 17.5262 33.5316 17.6871 33.6508C18.8571 34.5148 20.386 34.8771 21.943 34.8771H32.338C32.9576 34.8771 33.5555 34.6488 34.0175 34.2358C34.4795 33.8228 34.7731 33.2541 34.8422 32.6383H34.8692V30.4423H34.8715V20.4748C34.8711 19.8558 34.6894 19.2504 34.3487 18.7335C34.008 18.2167 33.5233 17.811 32.9545 17.5667L20.8607 12.3174L25.0063 5.13207L25.0086 5.1287C25.1745 4.83833 25.2184 4.49397 25.1307 4.17125C25.0429 3.84853 24.8307 3.57382 24.5406 3.40745L24.5372 3.40632L21.8653 1.85607L21.8597 1.85382ZM14.5382 12.0216L11.5502 17.1966C10.9595 17.4813 10.4703 17.9403 10.1485 18.5117L6.53947 24.7566C6.38967 25.0144 6.17508 25.2287 5.91697 25.3781C5.65886 25.5275 5.36619 25.6068 5.06797 25.6082C4.77453 25.6098 4.48612 25.532 4.23322 25.3832L4.22872 25.381C4.03408 25.2711 3.8632 25.1237 3.726 24.9472C3.58881 24.7708 3.48804 24.5688 3.42953 24.3531C3.37102 24.1374 3.35595 23.9122 3.38519 23.6906C3.41442 23.469 3.48739 23.2555 3.59984 23.0623L9.42734 13.3356C9.92125 12.5609 10.6763 11.9888 11.5556 11.7228C12.435 11.4568 13.3805 11.5145 14.221 11.8854H14.2255L14.5382 12.0216ZM16.9828 19.0393L19.7312 14.2761L32.0623 19.6311L32.059 19.6266C32.2259 19.6964 32.3685 19.8141 32.4686 19.9649C32.5687 20.1157 32.6219 20.2927 32.6215 20.4737V21.3669H32.6192V30.3895H26.083C25.7961 30.3895 25.516 30.3669 25.2415 30.3265L24.5181 30.1678C23.4244 29.8519 22.4665 29.182 21.7945 28.2632C20.8945 27.0324 19.2407 26.722 17.9537 27.4363L17.9526 27.4374C17.1763 27.8706 16.2583 28.3825 15.5361 28.7874L14.284 29.4849L14.2716 29.4928C13.7539 29.7905 13.1392 29.8708 12.5625 29.716C11.9857 29.5612 11.4938 29.184 11.1947 28.6671C10.8975 28.149 10.8177 27.5343 10.9729 26.9575C11.1281 26.3808 11.5056 25.8891 12.0227 25.5902L16.7758 22.8452C16.9797 22.7731 17.1584 22.6439 17.2907 22.4729C17.423 22.3019 17.5032 22.0965 17.5217 21.8811C17.6367 20.901 17.4486 19.9093 16.9828 19.0393ZM6.21997 28.6918L9.12809 30.3861C8.99571 30.5708 8.83334 30.732 8.64772 30.8631L8.63984 30.8687L6.93547 32.1579L5.80934 31.5021L6.04334 29.3826V29.3702C6.06584 29.1294 6.12547 28.8999 6.21997 28.6918ZM21.8158 8.41145L18.8908 6.73295L19.9888 4.82945L22.9082 6.51695L21.8158 8.41145Z" fill="#3E1E65"/>
</svg>
