<svg width="30" height="30" viewBox="0 0 30 30" fill="none" xmlns="http://www.w3.org/2000/svg">
<g clip-path="url(#clip0_2660_4117)">
<path d="M7.27129 0.52862L7.92379 2.53674C8.12693 3.14711 8.46964 3.70169 8.92467 4.1564C9.37971 4.61111 9.93453 4.95342 10.545 5.15612L12.555 5.80862L12.5963 5.81987C12.7512 5.87439 12.8853 5.97564 12.9802 6.10964C13.0751 6.24365 13.1261 6.4038 13.1261 6.568C13.1261 6.73219 13.0751 6.89234 12.9802 7.02635C12.8853 7.16035 12.7512 7.2616 12.5963 7.31612L10.5863 7.96862C9.97557 8.17134 9.42051 8.51362 8.96517 8.96831C8.50984 9.423 8.16676 9.97756 7.96317 10.588L7.31254 12.5942C7.25802 12.7491 7.15677 12.8833 7.02277 12.9782C6.88877 13.0731 6.72862 13.124 6.56442 13.124C6.40022 13.124 6.24007 13.0731 6.10607 12.9782C5.97206 12.8833 5.87081 12.7491 5.81629 12.5942L5.16379 10.588C4.96222 9.9752 4.61999 9.41811 4.1645 8.96131C3.709 8.50451 3.15288 8.16069 2.54067 7.95737L0.528793 7.30487C0.373911 7.25035 0.239768 7.1491 0.144877 7.0151C0.0499854 6.88109 -0.000976562 6.72094 -0.000976562 6.55674C-0.000976563 6.39255 0.0499854 6.2324 0.144877 6.09839C0.239768 5.96439 0.373911 5.86314 0.528793 5.80862L2.53879 5.15612C3.14188 4.94797 3.68871 4.60326 4.13658 4.14888C4.58444 3.69451 4.92124 3.14277 5.12067 2.53674L5.77504 0.530495C5.82917 0.374961 5.93037 0.240133 6.0646 0.144721C6.19882 0.0493097 6.35942 -0.00195313 6.52411 -0.00195312C6.68879 -0.00195312 6.84939 0.0493097 6.98361 0.144721C7.11784 0.240133 7.21904 0.374961 7.27317 0.530495M16.47 15.4011L15.0338 14.9361C14.5978 14.7908 14.2016 14.5459 13.8768 14.2207C13.552 13.8956 13.3074 13.4992 13.1625 13.063L12.6938 11.6305C12.655 11.5197 12.5827 11.4238 12.487 11.3559C12.3912 11.288 12.2768 11.2515 12.1594 11.2515C12.0421 11.2515 11.9276 11.288 11.8319 11.3559C11.7361 11.4238 11.6639 11.5197 11.625 11.6305L11.16 13.063C11.0181 13.4965 10.7776 13.8912 10.4575 14.2162C10.1374 14.5412 9.74635 14.7876 9.31504 14.9361L7.88067 15.4011C7.76992 15.4399 7.67396 15.5122 7.60607 15.6079C7.53819 15.7037 7.50172 15.8181 7.50172 15.9355C7.50172 16.0529 7.53819 16.1673 7.60607 16.263C7.67396 16.3588 7.76992 16.4311 7.88067 16.4699L9.31504 16.9367C9.75237 17.0821 10.1497 17.3277 10.4752 17.6539C10.8007 17.9801 11.0455 18.3779 11.19 18.8155L11.655 20.248C11.6939 20.3587 11.7661 20.4547 11.8619 20.5226C11.9576 20.5905 12.0721 20.6269 12.1894 20.6269C12.3068 20.6269 12.4212 20.5905 12.517 20.5226C12.6127 20.4547 12.685 20.3587 12.7238 20.248L13.1907 18.8155C13.3355 18.379 13.5802 17.9823 13.9054 17.6571C14.2306 17.3319 14.6273 17.0872 15.0638 16.9424L16.4982 16.4774C16.6089 16.4386 16.7049 16.3663 16.7728 16.2705C16.8407 16.1748 16.8771 16.0604 16.8771 15.943C16.8771 15.8256 16.8407 15.7112 16.7728 15.6154C16.7049 15.5197 16.6089 15.4474 16.4982 15.4086L16.47 15.4011ZM9.89254 20.9061C9.94129 21.0299 9.99942 21.1499 10.065 21.2624L9.45942 21.868C9.32659 22.0014 9.22647 22.1638 9.16692 22.3424L8.04379 25.7061L11.4075 24.5849C11.5861 24.5253 11.7485 24.4252 11.8819 24.2924L23.6832 12.4911C23.701 12.4715 23.7198 12.4527 23.7394 12.4349L25.7475 10.4286C26.0693 10.1071 26.2501 9.67099 26.2503 9.21616C26.2505 8.76132 26.07 8.32505 25.7485 8.00331C25.427 7.68157 24.9909 7.50072 24.536 7.50054C24.0812 7.50036 23.6449 7.68088 23.3232 8.00237L17.4788 13.8467C17.339 13.7699 17.1929 13.7053 17.0419 13.6536L15.6169 13.1849C15.5857 13.1745 15.5551 13.1626 15.525 13.1492L21.9994 6.67487C22.6727 6.0018 23.5859 5.62377 24.5379 5.62395C25.4899 5.62412 26.4029 6.00249 27.076 6.67581C27.7491 7.34913 28.1271 8.26224 28.1269 9.21428C28.1267 10.1663 27.7484 11.0793 27.075 11.7524L25.7007 13.1249L26.1938 13.618C26.8086 14.2333 27.154 15.0675 27.154 15.9374C27.154 16.8072 26.8086 17.6415 26.1938 18.2567L24.1013 20.3511C24.0141 20.4382 23.9107 20.5072 23.7968 20.5542C23.683 20.6013 23.561 20.6255 23.4378 20.6254C23.3146 20.6253 23.1927 20.601 23.0789 20.5537C22.9651 20.5065 22.8618 20.4373 22.7747 20.3502C22.6877 20.263 22.6187 20.1596 22.5716 20.0457C22.5245 19.9319 22.5004 19.8099 22.5005 19.6867C22.5005 19.5635 22.5249 19.4416 22.5721 19.3278C22.6193 19.214 22.6885 19.1107 22.7757 19.0236L24.8682 16.9311C25.1315 16.6674 25.2794 16.31 25.2794 15.9374C25.2794 15.5647 25.1315 15.2073 24.8682 14.9436L24.375 14.4505L13.2094 25.6161C12.8702 25.9551 12.4568 26.2106 12.0019 26.3624L6.85879 28.0761C6.69376 28.1309 6.51676 28.1386 6.34756 28.0986C6.17836 28.0585 6.02364 27.9722 5.9007 27.8492C5.77775 27.7263 5.69141 27.5715 5.65134 27.4024C5.61127 27.2332 5.61905 27.0562 5.67379 26.8911L7.38754 21.748C7.53754 21.2924 7.79442 20.8799 8.13379 20.5405L9.36567 19.3086C9.37904 19.3395 9.39155 19.3708 9.40317 19.4024L9.89254 20.9061Z" fill="#2B1744"/>
</g>
<defs>
<clipPath id="clip0_2660_4117">
<rect width="30" height="30" fill="white"/>
</clipPath>
</defs>
</svg>
