<svg width="30" height="30" viewBox="0 0 30 30" fill="none" xmlns="http://www.w3.org/2000/svg">
<g clip-path="url(#clip0_2660_4141)">
<path d="M4.11703 19.4696C8.05594 23.4076 14.2627 23.6823 18.5236 20.304L19.4114 21.1909L18.6741 21.9278L24.6947 27.9479C24.4706 28.3023 24.3736 28.5751 24.4856 28.6862L24.8152 29.0153C25.3509 29.552 29.5514 25.3501 29.0156 24.8143L28.6861 24.4857C28.575 24.3742 28.3027 24.4703 27.9492 24.6943L21.9277 18.6742L21.1908 19.4111L20.3034 18.5237C23.6812 14.2623 23.407 8.05512 19.4695 4.11668C15.2302 -0.122226 8.35641 -0.122226 4.11703 4.11668C-0.122813 8.35699 -0.121875 15.2303 4.11703 19.4696ZM5.39625 5.39684C8.92875 1.86387 14.6583 1.86387 18.1898 5.39684C21.7228 8.92887 21.7228 14.6584 18.1898 18.1904C14.6573 21.7239 8.92969 21.7229 5.39625 18.1904C1.86469 14.6575 1.86375 8.9298 5.39625 5.39684Z" fill="#2B1744"/>
<path d="M4.07002 11.2033C4.45942 12.2377 5.06492 13.1772 5.84611 13.9591C8.89908 17.0125 13.8505 17.0125 16.9049 13.9577C18.1958 12.6706 18.9942 10.9715 19.161 9.15625C20.2185 11.9448 19.6297 15.2153 17.3844 17.4606C14.3305 20.5145 9.37908 20.5145 6.32518 17.4606C4.61236 15.7492 3.86189 13.4402 4.07002 11.2033Z" fill="#2B1744"/>
</g>
<defs>
<clipPath id="clip0_2660_4141">
<rect width="30" height="30" fill="white"/>
</clipPath>
</defs>
</svg>
