<svg width="18" height="19" viewBox="0 0 18 19" fill="none" xmlns="http://www.w3.org/2000/svg">
<g clip-path="url(#clip0_4211_9503)">
<path fill-rule="evenodd" clip-rule="evenodd" d="M15.3773 3.07749C13.6854 1.38347 11.4353 0.450078 9.0378 0.449219C4.09755 0.449219 0.076923 4.46942 0.075204 9.41097C0.0743445 10.9907 0.487323 12.5326 1.2716 13.8914L0 18.536L4.75118 17.2898C6.06015 18.004 7.53415 18.38 9.03395 18.3805H9.0378C13.9772 18.3805 17.9983 14.3598 18 9.41827C18.0009 7.02337 17.0696 4.77195 15.3773 3.07792V3.07749ZM9.0378 16.8669H9.0348C7.6983 16.8665 6.3872 16.5072 5.24325 15.8287L4.97121 15.6671L2.1517 16.4067L2.90417 13.6576L2.72712 13.3757C1.98152 12.1897 1.58745 10.8188 1.58831 9.41142C1.59003 5.3044 4.93167 1.96275 9.04085 1.96275C11.0305 1.96361 12.9008 2.73929 14.3073 4.14754C15.7138 5.55537 16.4878 7.42732 16.4869 9.41742C16.4852 13.5249 13.1435 16.8665 9.0378 16.8665V16.8669ZM13.1238 11.2881C12.8999 11.1759 11.7989 10.6344 11.5935 10.5597C11.3881 10.4849 11.239 10.4475 11.0898 10.6718C10.9407 10.8962 10.5114 11.4007 10.3808 11.5498C10.2501 11.6993 10.1194 11.7178 9.89555 11.6056C9.6717 11.4935 8.95015 11.2571 8.09455 10.4943C7.4289 9.90042 6.97935 9.16732 6.84875 8.94297C6.7181 8.71867 6.835 8.59747 6.9467 8.48617C7.04725 8.38562 7.1706 8.22447 7.28275 8.09382C7.39495 7.96317 7.4319 7.86952 7.50665 7.72037C7.58145 7.57082 7.54405 7.44022 7.4882 7.32802C7.4323 7.21587 6.98455 6.11357 6.7976 5.66537C6.6158 5.22876 6.43105 5.28807 6.29395 5.28076C6.1633 5.27431 6.0142 5.27303 5.86465 5.27303C5.7151 5.27303 5.4727 5.32889 5.2673 5.55322C5.0619 5.77752 4.48346 6.31942 4.48346 7.42127C4.48346 8.52312 5.2858 9.58847 5.39795 9.73802C5.5101 9.88757 6.9772 12.1493 9.22345 13.1196C9.75765 13.3504 10.1749 13.4883 10.5002 13.5915C11.0366 13.7621 11.5247 13.738 11.9106 13.6804C12.3408 13.616 13.2355 13.1385 13.422 12.6155C13.6085 12.0925 13.6085 11.6439 13.5527 11.5506C13.4968 11.4574 13.3473 11.4011 13.1234 11.2889L13.1238 11.2881Z" fill="#25D366"/>
</g>
<defs>
<clipPath id="clip0_4211_9503">
<rect width="18" height="18.1" fill="white" transform="translate(0 0.449219)"/>
</clipPath>
</defs>
</svg>
